<?xml version="1.0" standalone="no"?>
<!DOCTYPE svg PUBLIC "-//W3C//DTD SVG 20010904//EN"
 "http://www.w3.org/TR/2001/REC-SVG-20010904/DTD/svg10.dtd">
<svg version="1.0" xmlns="http://www.w3.org/2000/svg"
 width="1280.000000pt" height="640.000000pt" viewBox="0 0 1280.000000 640.000000"
 preserveAspectRatio="xMidYMid meet">
<metadata>
Created by potrace 1.15, written by Peter Selinger 2001-2017
</metadata>
<g transform="translate(0.000000,640.000000) scale(0.100000,-0.100000)"
fill="#000000" stroke="none">
<path d="M11957 4213 c-8 -292 -29 -623 -39 -617 -4 3 -8 15 -8 26 0 38 -41
161 -81 243 -43 90 -122 194 -194 257 l-48 43 36 -51 c52 -72 101 -183 101
-224 -1 -19 -9 -78 -20 -130 -14 -75 -27 -110 -61 -165 -48 -77 -112 -233
-140 -340 l-18 -70 -3 69 c-3 62 -1 71 23 95 32 34 32 43 -1 30 -15 -5 -28 -8
-29 -7 -2 2 -8 89 -15 193 -12 189 -12 191 18 390 17 110 29 201 28 202 -6 6
-96 -139 -104 -168 -5 -21 -6 -82 0 -155 9 -134 -2 -368 -19 -385 -8 -8 -9 4
-6 38 3 36 2 44 -6 33 -6 -8 -11 -23 -11 -32 0 -33 -17 -18 -29 25 -19 65 -89
201 -117 228 -14 13 -39 28 -57 34 -27 8 -33 17 -41 54 -6 28 -6 49 1 60 8 13
7 17 -8 17 -11 0 -19 -4 -19 -9 0 -4 -30 -38 -66 -73 -57 -56 -73 -67 -114
-73 -68 -11 -91 -29 -146 -117 l-49 -77 -6 79 c-11 138 -20 198 -29 183 -6 -8
-9 5 -8 36 0 28 -6 66 -15 85 l-15 35 -2 -60 c-6 -269 -18 -487 -27 -496 -7
-7 -12 0 -16 23 -3 18 -15 88 -28 155 l-22 123 28 187 c44 304 46 281 -19 184
l-56 -83 0 -84 c0 -46 -4 -84 -9 -84 -5 0 -21 19 -35 43 -24 40 -72 103 -63
82 2 -5 16 -35 30 -65 14 -30 27 -62 29 -70 1 -9 -19 -42 -46 -73 l-49 -57
-23 34 c-27 40 -60 52 -159 60 l-70 6 63 -19 c78 -23 98 -41 118 -106 16 -51
16 -54 -3 -81 -11 -16 -38 -63 -58 -104 l-38 -75 -9 35 c-19 70 -28 55 -28
-45 0 -99 -30 -240 -43 -205 -3 8 -8 168 -10 355 -4 240 -10 368 -21 435 -28
171 -32 168 -39 -20 -10 -237 -27 -549 -33 -579 -7 -32 -17 -17 -45 69 -54
163 -170 338 -272 412 -27 19 -26 17 9 -28 20 -27 50 -77 67 -112 l29 -63 -20
-62 c-11 -34 -23 -84 -27 -111 l-8 -49 -14 26 c-8 17 -22 27 -35 27 -12 0 -18
-3 -15 -7 4 -4 -5 -19 -20 -35 -15 -15 -22 -28 -16 -28 5 0 18 9 28 20 14 16
20 17 27 8 18 -30 7 -71 -37 -133 -47 -66 -135 -241 -135 -269 0 -9 -4 -16
-10 -16 -6 0 -10 45 -10 115 0 174 43 288 120 319 22 9 40 17 40 19 0 2 -21 0
-47 -4 -27 -4 -53 -8 -60 -8 -6 -1 -25 -12 -41 -26 l-29 -24 -16 78 c-9 43
-22 93 -30 112 -15 32 -15 25 -16 -126 -1 -161 -6 -205 -22 -205 -5 0 -9 10
-9 23 -1 12 -13 54 -29 93 l-27 70 16 60 c10 32 29 84 44 114 l27 55 -26 -30
c-14 -16 -41 -56 -59 -87 l-32 -58 -24 32 c-27 37 -27 29 -1 203 10 72 18 131
17 133 -2 1 -26 -33 -55 -76 -34 -53 -51 -88 -51 -110 0 -18 -4 -32 -10 -32
-5 0 -10 8 -10 17 0 9 -3 13 -7 10 -3 -4 -15 1 -26 10 -20 18 -20 18 -2 -10
14 -22 16 -34 8 -65 -5 -20 -6 -49 -2 -64 7 -27 -5 -41 -14 -15 -4 12 -10 -32
-23 -167 l-7 -68 -37 72 c-48 90 -64 108 -106 116 -19 3 -36 10 -39 13 -2 4 9
36 26 71 29 62 14 69 -17 7 -25 -47 -25 -26 0 53 33 105 67 177 110 234 38 48
38 49 8 27 -70 -49 -174 -189 -224 -299 l-30 -65 -35 35 -35 36 -9 143 c-4 79
-8 207 -8 283 -1 89 -4 137 -11 130 -32 -32 -67 -564 -56 -854 3 -88 2 -135
-3 -120 -5 14 -21 65 -36 115 -15 49 -45 130 -66 180 -21 49 -39 94 -39 100 0
5 14 24 32 42 18 18 27 33 22 33 -6 0 -23 -14 -39 -30 l-29 -31 -18 23 c-10
13 -18 28 -18 34 0 6 -6 17 -14 23 -7 6 -16 32 -19 57 -6 57 -28 84 -52 64
-20 -16 -35 -4 -52 43 -6 18 -12 24 -12 15 -1 -18 -16 -25 -23 -10 -2 4 -19
21 -38 37 -36 31 -35 30 24 -48 l36 -49 0 -120 c0 -117 -1 -120 -18 -105 -29
27 -38 20 -11 -9 13 -14 24 -37 24 -51 1 -21 -1 -22 -11 -9 -6 9 -13 16 -16
16 -2 0 -1 -32 3 -72 12 -104 -2 -115 -34 -27 -29 81 -26 92 27 109 25 8 20 9
-34 6 -36 -2 -72 -7 -81 -11 -14 -5 -18 3 -23 42 -9 61 -37 162 -46 168 -4 3
-8 -61 -9 -141 -1 -83 -7 -156 -13 -170 -11 -24 -12 -23 -28 29 -9 29 -33 86
-54 126 l-37 73 26 41 c14 23 33 53 42 67 10 14 -3 7 -29 -18 l-45 -43 -12 48
c-36 144 -90 179 -91 59 l0 -29 -22 20 c-44 39 -49 35 -15 -10 31 -40 35 -53
40 -127 4 -64 2 -90 -10 -116 -19 -39 -28 -37 -37 11 -14 72 -26 46 -26 -57 0
-57 -6 -123 -14 -147 l-13 -45 -6 55 c-12 95 -8 264 6 278 10 11 10 13 0 7 -9
-5 -13 1 -13 20 0 35 -13 22 -29 -27 -20 -63 -98 -121 -102 -76 -1 7 -31 39
-67 72 -36 33 -62 55 -59 49 3 -6 22 -35 42 -64 35 -52 35 -53 15 -67 -11 -8
-20 -23 -20 -34 0 -11 -7 -19 -17 -20 -11 0 -13 -3 -5 -6 14 -5 17 -99 3 -107
-5 -3 -11 21 -15 54 -7 64 -33 160 -46 174 -5 4 -6 -29 -4 -75 5 -84 5 -84
-14 -64 -16 16 -22 40 -27 120 l-7 100 37 55 38 55 -37 -34 -36 -35 0 84 c0
109 -14 95 -35 -35 -15 -94 -22 -110 -71 -174 -2 -2 -12 2 -21 10 -16 12 -17
12 -6 -2 11 -13 4 -23 -42 -62 -53 -46 -66 -54 -64 -39 1 4 1 48 0 97 -1 63
-5 85 -11 74 -11 -19 -35 -122 -45 -192 l-6 -48 -60 65 c-33 36 -78 79 -100
97 l-40 32 48 -64 c26 -35 64 -95 84 -134 l36 -70 -32 -52 -32 -53 -23 41
c-12 23 -44 70 -70 104 -47 62 -47 63 -54 161 -4 54 -9 114 -13 132 -5 30 -3
33 33 48 21 9 53 18 71 21 18 3 36 9 38 13 2 4 -15 4 -38 -1 -23 -4 -59 -8
-79 -9 -33 0 -38 3 -38 23 -1 12 -7 36 -15 52 -13 29 -13 29 -14 -31 -1 -59
-2 -61 -25 -57 -18 4 -29 -3 -46 -27 -12 -17 -20 -33 -17 -36 2 -2 12 7 21 22
30 44 29 19 -1 -35 -15 -28 -33 -51 -40 -51 -7 0 -10 -6 -7 -13 3 -8 -4 -35
-16 -61 -19 -44 -22 -48 -47 -41 -27 6 -27 6 -9 -13 15 -17 16 -24 6 -43 -12
-21 -13 -21 -23 -4 -5 10 -10 51 -9 89 l1 71 -18 -54 c-10 -30 -21 -50 -24
-45 -13 23 -28 269 -25 432 l3 177 -43 63 c-24 35 -47 73 -52 85 -8 21 -9 21
-9 2 -1 -11 7 -75 16 -143 13 -96 14 -127 5 -140 -55 -78 -66 -107 -68 -175
-3 -92 -17 -105 -38 -33 -9 31 -18 56 -20 56 -2 0 -2 -35 1 -78 4 -61 2 -80
-9 -90 -13 -10 -18 -8 -32 12 -16 25 -53 39 -127 51 l-37 5 -7 176 c-4 96 -9
173 -11 171 -14 -13 -35 -177 -45 -342 -6 -104 -13 -192 -15 -194 -3 -3 -31 0
-64 5 -72 12 -68 4 8 -16 l57 -15 3 -139 c2 -130 -3 -166 -27 -166 -4 0 -18
33 -30 73 -24 74 -89 211 -123 259 l-19 28 36 71 c39 78 84 148 109 168 9 8
16 18 16 24 0 13 -94 -75 -154 -145 l-49 -57 -43 52 c-24 29 -67 72 -96 97
l-52 45 41 -55 c23 -30 57 -85 77 -121 l36 -66 -48 -94 c-27 -52 -54 -109 -61
-128 -9 -27 -14 -32 -23 -23 -10 10 -9 17 1 35 13 20 13 21 -3 8 -14 -12 -19
-11 -31 5 -22 28 -23 41 -29 274 -5 203 -26 405 -46 440 -6 9 -10 -21 -10 -84
0 -111 -20 -489 -26 -495 -2 -2 -13 4 -24 14 -11 10 -20 14 -20 8 0 -5 9 -18
20 -28 17 -15 20 -30 19 -94 -1 -42 -5 -89 -9 -106 -7 -27 -8 -25 -9 18 0 26
-5 47 -10 47 -5 0 -14 23 -21 51 -7 28 -32 88 -56 135 l-43 84 26 19 c14 11
40 23 59 27 19 3 37 11 41 17 3 5 2 7 -4 4 -5 -3 -40 -11 -77 -17 l-68 -11
-75 81 c-41 44 -80 80 -86 80 -6 0 -1 -10 10 -22 25 -27 93 -139 93 -152 0 -6
-9 0 -20 12 -43 46 -58 22 -76 -130 -12 -93 -23 -138 -45 -184 -16 -33 -29
-66 -29 -72 0 -6 -4 -13 -10 -17 -24 -15 -60 124 -46 179 3 13 25 48 48 78 40
51 33 51 -24 0 l-27 -24 -7 36 c-8 43 -1 112 20 211 20 93 21 284 2 311 -15
19 -15 19 -30 -1 -8 -11 -24 -51 -35 -90 -18 -63 -20 -88 -14 -256 3 -102 3
-207 -1 -233 l-8 -48 -39 38 c-22 21 -50 62 -64 91 -62 136 -89 155 -225 166
l-65 5 50 -14 c77 -23 93 -31 111 -59 17 -26 17 -26 -34 -75 -28 -26 -64 -67
-81 -91 l-31 -42 0 48 c0 42 5 55 41 97 46 55 49 75 4 28 -34 -36 -45 -38 -46
-7 -1 16 -4 12 -13 -15 -15 -51 -31 -65 -51 -48 -23 19 -47 -8 -56 -62 l-6
-43 -2 55 c-2 52 -2 54 -15 30 -8 -14 -19 -52 -26 -85 -7 -33 -14 -66 -16 -73
-3 -10 -17 -4 -47 20 l-42 33 37 -44 c21 -25 38 -48 38 -52 0 -4 -15 -38 -33
-76 -19 -37 -40 -84 -49 -103 l-15 -34 -25 44 c-25 44 -26 52 -32 280 -5 212
-21 372 -44 455 -6 21 -11 -34 -16 -175 -6 -181 -22 -368 -32 -379 -7 -8 -143
120 -184 173 -40 53 -41 57 -30 91 14 43 42 62 123 86 l62 18 -65 -5 c-98 -9
-136 -21 -164 -54 -13 -17 -28 -26 -31 -20 -3 5 -16 15 -28 21 -21 11 -21 11
2 -15 l24 -26 -37 -79 c-20 -43 -45 -108 -55 -143 l-18 -63 -12 43 c-11 37
-10 47 3 61 23 25 20 38 -3 17 -19 -17 -19 -16 -26 49 -4 37 -5 144 -1 239 l7
171 -33 54 c-18 29 -43 70 -55 90 -20 32 -23 33 -23 13 0 -13 11 -96 25 -185
30 -200 32 -230 21 -392 -8 -123 -10 -132 -39 -173 -27 -37 -33 -41 -39 -25
-4 10 -25 60 -47 111 -37 86 -40 99 -35 155 l6 62 -22 -35 -22 -34 -24 29
c-13 17 -24 33 -24 36 0 16 -56 40 -103 45 -44 4 -48 3 -27 -6 83 -36 109
-110 115 -324 3 -88 2 -203 -2 -255 -6 -90 -8 -96 -39 -130 -51 -54 -56 -36
-49 149 3 85 8 184 12 220 5 61 4 64 -11 45 l-16 -20 6 20 c5 19 5 19 -9 3
-13 -17 -36 -112 -54 -223 -7 -47 -8 -45 -14 50 -9 136 -11 440 -2 448 3 4 18
-3 31 -15 l25 -23 -12 22 c-6 12 -16 25 -22 29 -8 4 -7 9 2 15 10 6 6 9 -12 9
-32 0 -47 -16 -55 -61 -4 -22 -25 -54 -58 -89 -92 -97 -142 -181 -192 -318
l-24 -67 4 120 c5 146 28 259 67 338 17 32 28 61 26 64 -8 7 -65 -81 -102
-159 -19 -40 -36 -70 -36 -68 -1 3 -7 102 -13 220 -11 202 -12 212 -23 164
-27 -114 -40 -272 -43 -514 -2 -143 -4 -163 -11 -110 -4 36 -8 157 -8 269 0
112 -2 206 -5 209 -9 8 -28 -50 -33 -99 -5 -45 -5 -45 -47 -47 -66 -4 -105
-21 -130 -58 l-23 -34 -20 23 c-29 31 -46 170 -27 209 18 35 17 48 -1 24 -13
-17 -14 -15 -21 20 -3 22 -13 47 -22 57 -15 16 -16 16 -37 -3 l-22 -21 -38 58
c-21 32 -45 69 -52 83 -13 25 -13 25 -13 2 0 -12 9 -84 21 -158 11 -75 19
-138 16 -140 -2 -3 -19 7 -36 21 -24 21 -31 35 -32 63 l-1 37 -13 -31 c-8 -17
-21 -36 -29 -43 -14 -11 -16 -11 -16 5 -1 11 -7 33 -15 49 -14 29 -14 28 -9
-31 l6 -61 -56 -53 c-31 -29 -56 -59 -56 -68 0 -9 -6 -12 -18 -7 -9 4 -42 11
-72 16 -30 5 -56 13 -58 19 -4 12 -13 21 -69 72 -23 20 -43 45 -45 55 -3 13
-8 8 -15 -17 l-9 -35 -12 45 c-23 86 -32 81 -32 -20 l-1 -95 -34 -16 c-34 -16
-35 -16 -35 5 0 19 -2 18 -20 -9 l-19 -29 -16 37 c-8 20 -15 42 -15 49 0 23
-32 143 -41 153 -6 5 -7 -10 -3 -38 4 -26 4 -47 2 -47 -9 0 -58 79 -58 94 0 8
-21 45 -46 83 -25 37 -50 77 -54 88 -16 38 -11 -34 14 -183 21 -135 22 -143 5
-139 -16 4 -16 2 3 -23 19 -27 20 -37 14 -157 -3 -70 -6 -158 -5 -195 1 -139
-28 -44 -41 132 -15 214 -19 224 -89 245 l-25 8 27 -32 c27 -32 27 -34 27
-182 0 -93 -4 -149 -10 -149 -5 0 -10 5 -10 12 0 6 -25 55 -55 109 -30 53 -55
108 -55 121 0 14 -9 59 -19 101 l-20 76 26 67 c15 37 46 97 71 133 l44 64 -40
-34 c-71 -61 -138 -144 -181 -224 l-21 -40 -1 145 c-1 144 -1 145 -15 90 -14
-55 -46 -288 -59 -428 -4 -40 -9 -71 -12 -69 -6 7 -30 385 -39 617 -8 210 -13
217 -41 50 -11 -68 -17 -202 -20 -475 l-5 -379 -18 69 c-21 82 -65 205 -91
257 -26 51 -25 59 22 112 48 55 43 59 -14 11 -22 -19 -44 -35 -47 -35 -4 0
-24 27 -44 60 -38 61 -184 223 -218 241 -11 6 0 -15 26 -48 24 -33 64 -99 89
-148 l45 -89 -65 -71 c-35 -38 -81 -96 -101 -127 -20 -32 -39 -58 -42 -58 -3
0 -6 10 -7 23 -10 173 -16 217 -26 208 -9 -7 -12 5 -13 42 0 29 -7 65 -16 81
-14 26 -15 7 -21 -251 -4 -153 -10 -294 -14 -313 -6 -33 -7 -34 -14 -10 -4 14
-8 43 -8 65 -1 22 -10 81 -20 130 -10 50 -22 149 -26 220 -12 236 -53 461 -54
300 -1 -109 -13 -245 -20 -241 -4 3 -7 -73 -7 -167 0 -95 -4 -208 -8 -252 l-9
-80 -18 70 c-37 148 -38 142 -38 -532 l-1 -653 35 0 c24 0 35 -5 35 -15 0 -13
714 -15 6365 -15 l6365 0 -1 778 -1 777 -26 -87 c-14 -48 -27 -86 -29 -84 -6
5 -31 407 -39 621 -8 206 -13 210 -40 25 -11 -72 -17 -220 -21 -475 -5 -329
-7 -364 -19 -320 -7 28 -14 110 -15 183 -1 73 -5 130 -10 125 -4 -4 -14 -32
-22 -61 l-13 -53 -28 64 c-37 87 -130 229 -199 303 -31 34 -57 67 -57 73 0 22
82 176 128 241 l47 65 -53 -45 c-159 -135 -279 -341 -358 -620 l-24 -85 4 145
c9 309 -23 833 -53 863 -4 4 -11 -81 -14 -190z m-5523 -357 c-1 -12 -3 -70 -3
-129 -1 -79 -4 -108 -13 -105 -29 10 -31 36 -13 162 11 70 22 119 25 110 4
-10 5 -27 4 -38z m4651 -35 c-8 -36 -16 -43 -34 -32 -11 7 -8 15 10 40 27 36
33 34 24 -8z m685 -82 c0 -4 -7 -9 -15 -13 -12 -4 -15 6 -14 62 l1 67 13 -55
c8 -30 14 -58 15 -61z m-1260 75 c0 -8 -4 -12 -10 -9 -5 3 -10 10 -10 16 0 5
5 9 10 9 6 0 10 -7 10 -16z m-8161 -106 c1 -50 -16 -101 -30 -92 -5 3 -9 40
-9 83 0 123 36 132 39 9z m6021 71 c0 -6 -4 -7 -10 -4 -5 3 -10 11 -10 16 0 6
5 7 10 4 6 -3 10 -11 10 -16z m3936 -31 c56 -93 96 -196 85 -216 -15 -28 -41
-179 -41 -239 0 -46 -2 -54 -14 -44 -11 9 -15 9 -18 -1 -2 -6 -19 13 -36 44
-18 31 -48 68 -67 82 -42 33 -43 42 -11 196 27 133 54 230 64 230 4 0 21 -24
38 -52z m-1820 -83 c5 -49 3 -63 -10 -74 -9 -7 -16 -23 -17 -35 -2 -60 -15
-57 -42 12 -15 38 -27 73 -27 77 0 5 17 38 37 74 l37 66 8 -30 c4 -17 11 -57
14 -90z m582 100 c2 -2 -1 -28 -7 -58 -5 -30 -13 -100 -17 -156 -4 -56 -10
-101 -13 -101 -3 0 -14 19 -23 42 -10 23 -20 39 -22 37 -3 -2 -1 -61 4 -129 5
-69 10 -156 10 -194 l0 -69 -26 39 c-51 74 -60 84 -73 71 -6 -6 -11 -7 -11 -1
0 6 6 16 13 23 10 10 9 11 -5 6 -28 -11 -32 17 -18 123 14 108 40 185 101 303
36 69 44 79 63 73 11 -4 22 -8 24 -9z m-4928 -44 c14 -9 36 -39 48 -66 23 -47
23 -49 6 -86 -9 -22 -21 -39 -26 -39 -4 0 -8 -7 -8 -15 0 -9 -15 0 -38 23 -38
38 -39 41 -44 126 -6 85 -5 87 16 81 11 -4 32 -14 46 -24z m4804 -6 c-11 -16
-20 -22 -24 -15 -4 7 -22 -11 -45 -44 -21 -31 -40 -56 -41 -56 -4 0 26 65 45
98 11 21 71 56 79 47 2 -2 -4 -15 -14 -30z m227 -21 c30 -68 66 -251 79 -401
13 -157 6 -192 -37 -193 -15 0 -17 191 -5 317 6 58 5 70 -5 61 -10 -8 -13 -4
-13 18 l-1 29 -12 -29 c-12 -26 -14 -17 -27 108 -8 75 -11 136 -7 136 4 0 17
-21 28 -46z m-9702 -254 c-1 -187 -7 -218 -25 -135 -32 145 -44 251 -37 330
l6 80 29 -60 c28 -58 28 -64 27 -215z m3720 193 l-24 -38 -3 44 c-2 24 -1 50
3 59 5 13 9 13 27 -5 l21 -21 -24 -39z m1161 -5 c0 -32 -4 -58 -9 -58 -10 0
-20 94 -13 123 9 35 22 -5 22 -65z m2020 -17 c0 -20 -5 -43 -10 -51 -7 -11
-10 -6 -10 21 0 20 -2 58 -6 85 l-5 49 15 -34 c9 -18 16 -50 16 -70z m3414 8
c-6 -11 -44 -18 -44 -8 0 4 8 25 17 45 l18 36 7 -33 c3 -18 5 -36 2 -40z
m-7081 -26 c10 -100 8 -167 -5 -259 l-12 -82 -23 15 c-13 8 -23 22 -23 30 0 8
-4 12 -9 8 -5 -3 -12 -1 -16 5 -3 5 -16 15 -28 21 -21 12 -21 11 -4 -8 9 -11
17 -33 17 -50 0 -38 -29 -125 -40 -118 -11 7 -5 174 9 240 17 85 49 164 95
232 11 18 24 33 27 33 3 0 9 -30 12 -67z m-2513 47 c0 -5 6 -10 13 -10 23 0
44 -33 50 -78 4 -36 3 -41 -9 -31 -11 9 -13 -2 -8 -72 4 -59 3 -80 -5 -69 -7
11 -14 -1 -28 -50 l-18 -65 -6 110 c-10 178 -10 275 1 275 6 0 10 -4 10 -10z
m7003 -102 c4 -51 3 -131 -2 -178 l-8 -85 -2 121 c0 67 -4 149 -8 184 -4 42
-3 61 4 57 6 -4 13 -48 16 -99z m627 39 c12 -45 12 -50 -8 -70 l-22 -21 0 79
c0 85 9 89 30 12z m-8067 -10 c-19 -11 -33 7 -32 43 l0 25 24 -30 c21 -26 22
-31 8 -38z m4679 -115 c2 -78 1 -142 -2 -142 -22 0 -40 192 -20 205 16 10 12
25 -5 19 -12 -5 -15 4 -15 47 0 53 0 53 19 34 17 -18 20 -38 23 -163z m-5366
82 c-4 -13 -11 -24 -18 -24 -12 0 -4 82 9 103 10 15 17 -48 9 -79z m1019 -113
l-7 -64 -22 39 c-51 92 -52 96 -9 160 l38 57 3 -64 c2 -35 0 -93 -3 -128z
m228 164 c-7 -21 -13 -19 -13 6 0 11 4 18 10 14 5 -3 7 -12 3 -20z m4892 -59
c-18 -37 -39 -95 -46 -127 -7 -32 -17 -59 -21 -59 -4 0 -8 23 -8 51 0 43 7 61
51 130 28 44 53 78 55 77 1 -2 -12 -34 -31 -72z m4581 -145 c-30 -128 -35
-124 -35 33 -1 129 1 152 17 169 16 19 17 17 26 -53 7 -59 6 -88 -8 -149z
m-3030 176 c21 -33 21 -33 3 -107 -11 -40 -21 -76 -24 -78 -3 -3 -5 28 -5 69
0 41 -3 91 -6 112 -8 46 4 47 32 4z m-8196 -45 c0 -7 -5 -23 -11 -34 -9 -16
-13 -18 -20 -7 -6 11 -9 10 -15 -4 -5 -14 -9 -15 -20 -6 -21 17 -17 40 13 84
l27 39 12 -29 c7 -17 13 -36 14 -43z m2520 -28 c-5 -49 -10 -111 -11 -139 l-1
-50 -24 78 -25 78 32 65 c18 35 34 63 36 61 2 -2 -1 -44 -7 -93z m1390 87 c0
-6 -4 -13 -10 -16 -5 -3 -10 1 -10 9 0 9 5 16 10 16 6 0 10 -4 10 -9z m800
-68 c10 -45 10 -55 -3 -68 -12 -11 -17 -12 -20 -2 -3 6 -11 -4 -18 -23 l-14
-35 -5 40 c-6 44 29 175 41 153 3 -7 12 -37 19 -65z m-3436 -36 l36 -69 -26
-41 c-14 -23 -35 -62 -47 -87 l-21 -45 -12 105 c-6 58 -15 130 -19 162 -6 50
-5 57 11 60 26 6 36 -6 78 -85z m786 -28 c-5 -63 -11 -134 -13 -159 l-2 -45
-29 55 c-16 30 -38 68 -49 83 -17 26 -18 33 -7 70 17 59 37 87 73 102 18 7 33
12 35 10 1 -1 -2 -54 -8 -116z m1265 17 c14 -43 24 -80 22 -83 -2 -2 -16 15
-31 37 -14 22 -28 40 -31 40 -2 0 11 -32 30 -71 29 -61 33 -78 28 -122 -3 -35
-15 -66 -34 -94 -17 -23 -41 -62 -55 -85 l-25 -43 4 150 c4 128 20 254 43 354
7 34 17 17 49 -83z m3765 58 c-18 -21 -24 -10 -9 18 8 14 14 18 17 10 2 -7 -2
-19 -8 -28z m-1497 -41 c-4 -10 -12 -4 -29 21 -32 47 -30 56 5 22 17 -16 27
-35 24 -43z m4344 30 c-3 -10 -5 -4 -5 12 0 17 2 24 5 18 2 -7 2 -21 0 -30z
m-8578 -16 c7 -10 8 -17 2 -21 -5 -4 -14 2 -20 11 -8 14 -13 15 -19 5 -6 -9
-12 -6 -20 13 -7 14 -12 28 -12 31 0 8 56 -24 69 -39z m5376 -156 c-7 -130 -8
-134 -22 -100 -16 36 -13 88 10 229 16 101 21 49 12 -129z m259 184 c3 -9 0
-15 -9 -15 -8 0 -15 7 -15 15 0 8 4 15 9 15 5 0 11 -7 15 -15z m4910 -180 c34
-126 67 -329 60 -365 -7 -30 -24 -42 -24 -16 0 8 -21 56 -46 107 l-47 93 -4
190 -3 191 20 -55 c11 -30 31 -95 44 -145z m-5740 17 l-8 -147 -12 64 c-8 45
-9 86 -3 135 23 173 34 147 23 -52z m-1849 118 c9 -17 13 -36 9 -42 -5 -7 -12
1 -20 23 -21 58 -15 69 11 19z m951 -189 c5 -31 1 -40 -25 -65 l-30 -29 -4 24
c-27 145 -32 209 -18 250 l14 43 29 -94 c15 -52 31 -110 34 -129z m3113 193
c19 -24 61 -140 61 -167 0 -6 -15 11 -33 38 -18 28 -43 64 -55 80 -14 20 -20
38 -16 53 8 29 18 28 43 -4z m-7295 -128 c-8 -164 -28 -173 -29 -13 0 92 15
170 31 155 2 -3 2 -67 -2 -142z m2830 92 c-9 -71 -23 -96 -24 -41 0 37 16 93
27 93 2 0 1 -24 -3 -52z m5385 -51 c9 -65 9 -83 -4 -106 -8 -16 -22 -59 -32
-97 l-18 -69 -6 75 c-14 163 -11 230 12 267 27 43 32 35 48 -70z m490 -25 c13
-125 14 -225 2 -237 -5 -6 -24 -38 -41 -73 l-32 -64 -24 36 c-13 19 -24 47
-24 61 0 71 88 416 101 393 4 -7 12 -59 18 -116z m-1098 21 c-8 -14 -10 -4
-10 42 l1 60 10 -42 c6 -28 6 -49 -1 -60z m-8224 65 c-3 -8 -6 -5 -6 6 -1 11
2 17 5 13 3 -3 4 -12 1 -19z m7163 -15 c0 -18 -17 -16 -24 3 -8 22 4 40 15 23
5 -8 9 -20 9 -26z m-5853 -10 c-3 -10 -5 -4 -5 12 0 17 2 24 5 18 2 -7 2 -21
0 -30z m-1733 -104 c13 -68 27 -146 30 -174 l6 -49 -39 38 -39 38 -4 116 c-3
68 -1 127 5 140 6 12 12 20 14 18 2 -2 14 -59 27 -127z m5675 56 c0 -28 0 -29
-14 -11 -16 21 -20 68 -8 80 9 9 21 -28 22 -69z m-5858 -47 c-23 -40 -41 -70
-41 -66 0 12 47 134 62 160 l13 23 3 -22 c2 -12 -15 -54 -37 -95z m7507 -68
l-1 -65 -7 50 c-5 28 -8 84 -8 125 l1 75 7 -60 c4 -33 8 -89 8 -125z m-2638
156 c0 -8 -4 -18 -10 -21 -5 -3 -10 3 -10 14 0 12 5 21 10 21 6 0 10 -6 10
-14z m2881 -13 c29 -51 32 -134 6 -200 l-22 -58 -6 65 c-10 96 -10 220 -1 220
4 0 15 -12 23 -27z m-5151 -60 l0 -77 -21 21 c-21 20 -21 22 -5 77 9 31 19 56
21 56 3 0 5 -35 5 -77z m7591 -26 c-8 -8 -11 1 -11 29 0 53 14 67 18 19 2 -21
-1 -42 -7 -48z m779 48 c0 -19 -4 -35 -10 -35 -11 0 -13 30 -4 54 10 25 14 19
14 -19z m862 -100 c80 -147 78 -133 81 -454 1 -159 1 -289 1 -288 -1 1 -12 38
-23 82 -29 106 -83 239 -131 325 -47 81 -49 114 -25 315 8 66 15 125 15 130 1
16 47 -46 82 -110z m-8575 83 c-3 -8 -6 -5 -6 6 -1 11 2 17 5 13 3 -3 4 -12 1
-19z m3732 -38 c-1 -32 -2 -33 -9 -10 -4 14 -8 36 -9 50 -1 20 1 22 9 10 5 -8
9 -31 9 -50z m181 -63 l-12 -41 -14 25 c-13 25 -8 65 13 119 13 34 26 -62 13
-103z m4061 -102 c-6 -93 -14 -190 -19 -215 l-8 -45 -7 49 c-14 96 -8 228 15
329 28 121 31 100 19 -118z m-4783 96 l32 -99 -36 -36 c-20 -20 -37 -36 -37
-36 -1 0 -2 61 -2 135 0 74 2 135 5 135 3 0 20 -44 38 -99z m2014 47 c-9 -9
-12 -4 -11 23 0 32 1 33 11 11 8 -17 8 -26 0 -34z m-3592 -88 c0 -89 -4 -129
-15 -150 -9 -17 -18 -30 -21 -30 -5 0 3 187 12 258 10 84 24 40 24 -78z
m-3366 -15 c-7 -11 -15 -45 -19 -76 -5 -37 -17 -72 -36 -100 -16 -24 -29 -38
-29 -31 0 22 30 165 46 217 26 83 25 83 39 45 9 -28 9 -39 -1 -55z m1096 -7
c0 -37 -1 -38 -35 -38 -40 0 -41 3 -24 82 l12 52 23 -29 c16 -20 24 -43 24
-67z m5913 5 c14 -49 31 -116 38 -151 l12 -63 -32 -33 c-17 -17 -31 -35 -31
-39 0 -4 -8 -19 -17 -34 l-17 -26 -8 29 c-4 16 -11 97 -14 179 -6 132 -5 155
11 188 9 20 21 37 25 37 4 0 19 -39 33 -87z m-5363 17 c-4 -30 -9 -44 -10 -30
-3 32 1 73 7 83 10 17 11 1 3 -53z m1972 -37 c-9 -24 -10 -18 -10 37 0 61 1
63 10 28 7 -25 6 -47 0 -65z m-862 18 c-1 -22 -3 -19 -15 14 -18 50 -18 55 0
31 8 -11 15 -31 15 -45z m1009 -18 c-1 -56 -2 -63 -10 -38 -8 26 -2 105 7 105
2 0 4 -30 3 -67z m165 -2 l15 -63 -42 6 -42 6 35 -16 c19 -9 36 -17 38 -19 4
-3 -41 -91 -58 -115 -8 -11 -9 -6 -4 22 3 22 0 58 -11 93 l-16 57 32 49 c17
27 33 48 35 46 2 -1 10 -31 18 -66z m-5352 -76 c-1 -49 -4 -155 -9 -235 l-8
-145 -34 54 c-30 45 -34 61 -32 105 3 70 18 164 43 271 18 78 22 87 30 65 6
-14 10 -65 10 -115z m9188 -20 c-5 -139 -10 -144 -28 -30 -7 45 -6 70 5 105 8
25 17 51 19 59 9 27 9 4 4 -134z m1268 -96 l29 -103 -28 -64 c-16 -35 -39 -99
-51 -141 l-23 -76 -12 55 c-15 64 -30 529 -18 556 11 27 66 -94 103 -227z
m-3918 206 c0 -14 -4 -25 -9 -25 -4 0 -6 11 -3 25 2 14 6 25 8 25 2 0 4 -11 4
-25z m-6435 -112 c19 -41 22 -59 15 -90 -5 -21 -14 -90 -20 -153 -7 -63 -16
-121 -20 -128 -7 -15 -17 103 -26 327 -5 128 -4 135 11 116 9 -11 27 -43 40
-72z m553 -13 l-1 -55 -7 50 c-5 28 -8 64 -8 80 0 29 0 29 8 5 4 -14 8 -50 8
-80z m5879 68 c-3 -8 -6 -5 -6 6 -1 11 2 17 5 13 3 -3 4 -12 1 -19z m-5080
-20 c-3 -7 -5 -2 -5 12 0 14 2 19 5 13 2 -7 2 -19 0 -25z m543 -165 c0 -17
-11 -55 -25 -85 l-25 -53 0 136 c0 75 3 151 7 170 6 30 8 24 24 -51 10 -47 18
-99 19 -117z m495 165 c25 -22 25 -25 19 -103 l-7 -80 -22 70 c-12 39 -27 80
-34 93 -23 43 3 55 44 20z m8244 -50 c-4 -24 -8 -72 -9 -107 0 -38 -4 -61 -9
-55 -10 11 -22 189 -14 198 4 3 14 6 23 6 15 0 16 -6 9 -42z m-7832 -15 c-3
-10 -5 -4 -5 12 0 17 2 24 5 18 2 -7 2 -21 0 -30z m-1427 -81 c0 -49 -3 -138
-7 -198 l-8 -109 -6 65 c-9 86 -11 294 -3 314 15 38 24 10 24 -72z m1923 48
c-3 -11 -7 -20 -9 -20 -2 0 -4 9 -4 20 0 11 4 20 9 20 5 0 7 -9 4 -20z m4624
-143 c-2 -23 -3 -1 -3 48 0 50 1 68 3 42 2 -26 2 -67 0 -90z m-5225 12 l-8
-33 -13 46 c-12 41 -11 49 6 74 l18 28 3 -41 c2 -23 -1 -56 -6 -74z m592 65
c8 -20 8 -98 -1 -214 l-6 -93 -23 94 c-22 91 -22 96 -7 162 16 67 26 80 37 51z
m5104 -114 l1 -45 -16 58 c-8 32 -11 66 -7 75 6 14 9 11 14 -13 4 -16 8 -50 8
-75z m-3071 -46 l11 -75 -34 -72 -35 -72 5 72 c6 95 28 234 35 227 3 -3 11
-39 18 -80z m1012 -76 c-18 -45 -21 -27 -7 53 l13 74 3 -49 c2 -27 -2 -62 -9
-78z m2000 45 c1 -17 -5 -23 -18 -23 -31 0 -35 18 -15 63 l19 41 6 -29 c4 -17
7 -40 8 -52z m-7069 -40 c0 -47 -3 -64 -11 -56 -5 5 -11 19 -11 29 -2 24 11
94 17 94 3 0 5 -30 5 -67z m4097 -340 c-3 -10 -5 -2 -5 17 0 19 2 27 5 18 2
-10 2 -26 0 -35z"/>
</g>
</svg>
