<?xml version="1.0" encoding="iso-8859-1"?>
<!-- Uploaded to: SVG Repo, www.svgrepo.com, Generator: SVG Repo Mixer Tools -->
<svg fill="#000000" height="800px" width="800px" version="1.1" id="Layer_1" xmlns="http://www.w3.org/2000/svg" xmlns:xlink="http://www.w3.org/1999/xlink" 
	 viewBox="0 0 512 512" xml:space="preserve">
<g>
	<g>
		<g>
			<path d="M298.662,256.006c0-23.531-19.136-42.667-42.667-42.667s-42.667,19.136-42.667,42.667s19.136,42.667,42.667,42.667
				S298.662,279.537,298.662,256.006z"/>
			<path d="M330.044,151.799c-15.403-10.987-33.323-18.581-52.715-21.867v43.776c7.744,2.005,15.019,5.077,21.739,9.045
				L330.044,151.799z"/>
			<path d="M182.758,212.934l-30.976-30.976c-10.987,15.403-18.581,33.323-21.867,52.715h43.776
				C175.697,226.929,178.769,219.654,182.758,212.934z"/>
			<path d="M329.233,299.078l30.976,30.976c10.987-15.403,18.581-33.323,21.867-52.715H338.3
				C336.294,285.084,333.222,292.358,329.233,299.078z"/>
			<path d="M173.692,277.34h-43.776c3.285,19.392,10.88,37.312,21.867,52.715l30.976-30.976
				C178.769,292.358,175.697,285.084,173.692,277.34z"/>
			<path d="M181.948,360.22c15.403,10.987,33.323,18.581,52.715,21.867V338.31c-7.744-2.005-15.019-5.077-21.739-9.067
				L181.948,360.22z"/>
			<path d="M256,0C114.837,0,0,114.859,0,256c0,141.163,114.837,256,256,256s256-114.837,256-256C512,114.859,397.163,0,256,0z
				 M377.003,376.213c-0.149,0.149-0.192,0.341-0.32,0.469c-0.128,0.128-0.32,0.171-0.469,0.299
				C345.344,407.68,302.848,426.667,256,426.667c-46.869,0-89.365-18.987-120.235-49.685c-0.128-0.128-0.32-0.171-0.448-0.299
				c-0.149-0.128-0.192-0.32-0.32-0.469C104.32,345.344,85.333,302.848,85.333,256c0-46.848,18.987-89.323,49.664-120.213
				c0.128-0.128,0.171-0.32,0.32-0.448c0.128-0.149,0.32-0.192,0.448-0.32C166.635,104.341,209.131,85.333,256,85.333
				c46.848,0,89.344,19.008,120.213,49.685c0.149,0.128,0.341,0.171,0.469,0.32c0.128,0.128,0.171,0.32,0.32,0.448
				c30.656,30.891,49.664,73.365,49.664,120.213C426.667,302.848,407.659,345.344,377.003,376.213z"/>
			<path d="M329.239,212.932c3.968,6.741,7.04,13.995,9.067,21.739h43.755c-3.264-19.392-10.859-37.312-21.845-52.715
				L329.239,212.932z"/>
			<path d="M234.656,173.698v-43.755c-19.392,3.264-37.312,10.88-52.715,21.845l30.976,30.976
				C219.659,178.797,226.912,175.725,234.656,173.698z"/>
			<path d="M277.335,338.315v43.755c19.392-3.264,37.312-10.88,52.715-21.845l-30.976-30.976
				C292.333,333.216,285.079,336.288,277.335,338.315z"/>
		</g>
	</g>
</g>
</svg>